<svg width="32" height="32" viewBox="0 0 32 32" fill="none" xmlns="http://www.w3.org/2000/svg">
<circle cx="16" cy="16" r="15" fill="#FF0000" stroke="white" stroke-width="2"/>
<path d="M11.217 24.6652L11.217 24.6652L11.2169 24.6624L10.583 11.2805H22.0502L21.4163 24.6624H21.4163L21.4162 24.6652C21.4052 24.9266 21.1901 25.1329 20.9286 25.1329H11.7046C11.4431 25.1329 11.2279 24.9266 11.217 24.6652ZM18.8045 13.3331C18.3067 13.3331 17.9031 13.7367 17.9031 14.2344V22.179C17.9031 22.6771 18.307 23.0803 18.8045 23.0803H19.4464C19.9441 23.0803 20.3477 22.6768 20.3477 22.179V14.2344C20.3477 13.7365 19.9439 13.3331 19.4464 13.3331H18.8045ZM15.9956 13.3331C15.4978 13.3331 15.0944 13.7367 15.0944 14.2344V22.179C15.0944 22.677 15.498 23.0803 15.9956 23.0803H16.6375C17.1354 23.0803 17.5388 22.6767 17.5388 22.179V14.2344C17.5388 13.7366 17.1351 13.3331 16.6375 13.3331H15.9956ZM13.1867 13.3331C12.6889 13.3331 12.2855 13.7367 12.2855 14.2344V22.179C12.2855 22.677 12.6891 23.0803 13.1867 23.0803H13.8287C14.3264 23.0803 14.73 22.6768 14.73 22.179V14.2344C14.73 13.7366 14.3264 13.3331 13.8287 13.3331H13.1867Z" stroke="white"/>
<path d="M18.2577 7.0114V7.5114H18.7577H23.013C23.0793 7.5114 23.133 7.56511 23.133 7.63147V9.0793H9.5V7.63142C9.5 7.56506 9.55376 7.51136 9.62002 7.51136H13.8754H14.3754V7.01136V6.5H18.2577V7.0114Z" stroke="white"/>
</svg>
